<svg version="1.1" id="Layer_1" xmlns="http://www.w3.org/2000/svg" xmlns:xlink="http://www.w3.org/1999/xlink" x="0px" y="0px"
	 width="100%" viewBox="0 0 1788 880" enable-background="new 0 0 1788 880" xml:space="preserve">
<path fill="#040506" opacity="1.000000" stroke="none" 
	d="
M1192.000000,881.000000 
	C794.666687,881.000000 397.833344,881.000000 1.000000,881.000000 
	C1.000000,587.666687 1.000000,294.333344 1.000000,1.000000 
	C597.000000,1.000000 1193.000000,1.000000 1789.000000,1.000000 
	C1789.000000,294.333344 1789.000000,587.666687 1789.000000,881.000000 
	C1590.166626,881.000000 1391.333374,881.000000 1192.000000,881.000000 
M267.987885,465.548096 
	C290.501160,515.705261 336.117340,543.020630 390.224182,537.907166 
	C420.160980,535.077942 445.101074,521.584167 465.535492,499.567688 
	C468.390350,496.491852 468.359039,494.377014 464.972473,491.999817 
	C460.740875,489.029480 456.291901,486.252380 452.535706,482.749603 
	C447.407501,477.967438 442.799988,472.620026 438.055359,467.436127 
	C435.280762,464.404602 433.291443,464.799957 430.414886,467.763824 
	C419.106476,479.415436 405.593567,487.128479 389.348572,489.795288 
	C359.593903,494.679932 329.052460,480.625336 315.160522,455.482391 
	C296.993866,422.602692 306.623566,383.989380 338.139984,363.339325 
	C363.570251,346.676971 398.852722,348.705231 422.060059,368.183960 
	C424.703705,370.402893 427.264801,372.720184 430.237091,375.317810 
	C440.843933,364.993652 451.215942,354.922760 461.552856,344.815857 
	C463.613800,342.800781 462.758850,341.094940 460.951141,339.296875 
	C434.246124,312.734680 401.921722,300.578735 364.680634,304.793060 
	C327.413940,309.010315 297.654083,327.267212 277.507538,359.317993 
	C256.554779,392.651276 252.782761,427.976990 267.987885,465.548096 
M1308.814697,469.681122 
	C1319.118042,482.278992 1331.805176,491.346863 1347.688599,495.467072 
	C1377.327393,503.155487 1403.755859,497.730774 1424.803711,474.600983 
	C1439.180298,458.802429 1442.815430,439.034363 1442.399414,418.282776 
	C1442.327881,414.716766 1440.144531,414.406586 1437.359863,414.413635 
	C1415.696167,414.468414 1394.032471,414.512634 1372.369019,414.433533 
	C1368.858398,414.420715 1367.662598,415.800476 1367.752686,419.201691 
	C1367.893921,424.528595 1367.828491,429.869385 1367.611816,435.194550 
	C1367.461914,438.878510 1368.910156,440.177307 1372.599365,440.124481 
	C1383.428955,439.969391 1394.262695,440.088348 1405.094604,440.135742 
	C1406.995117,440.144073 1408.894897,440.325348 1411.249634,440.451019 
	C1408.941406,451.026459 1403.981445,458.977051 1395.284424,464.299377 
	C1369.587524,480.025269 1328.979980,468.954926 1322.877319,430.064728 
	C1319.480225,408.417206 1329.853394,387.322418 1348.637939,378.335876 
	C1368.415771,368.874146 1391.267700,373.489777 1406.016602,390.011017 
	C1406.988647,391.099731 1407.426880,392.664978 1408.178345,394.135559 
	C1415.551025,388.352905 1421.335327,383.586487 1427.375122,379.169556 
	C1430.707886,376.732300 1430.396973,374.918640 1427.900635,371.983734 
	C1414.897949,356.696503 1398.098877,348.242523 1378.523804,346.489624 
	C1346.463989,343.618805 1320.246216,355.129150 1303.317505,382.991058 
	C1285.461670,412.378510 1288.844849,441.453033 1308.814697,469.681122 
M1082.961060,479.497009 
	C1082.998657,465.338043 1082.976318,451.178589 1083.099731,437.020355 
	C1083.159424,430.170197 1086.117065,424.795563 1092.189087,421.439728 
	C1104.233276,414.783234 1121.956787,420.352020 1121.717529,438.577332 
	C1121.488037,456.065094 1121.735596,473.558899 1121.542847,491.047516 
	C1121.499146,495.019684 1122.783325,496.329712 1126.722656,496.145569 
	C1132.706055,495.865967 1138.724609,495.860870 1144.705688,496.171539 
	C1148.723267,496.380219 1149.834106,494.966797 1149.809082,491.037354 
	C1149.686035,471.716400 1150.082764,452.390411 1149.820435,433.072662 
	C1149.590820,416.159729 1142.266357,403.019928 1126.521118,395.989380 
	C1111.173340,389.136322 1096.286011,390.982697 1082.675781,401.051331 
	C1080.223267,402.865631 1078.186157,405.241577 1075.970825,407.345215 
	C1058.683838,388.744751 1041.179321,387.420807 1017.017456,402.985016 
	C1016.866516,401.908356 1016.525513,400.969574 1016.647400,400.095367 
	C1017.300903,395.408752 1015.333252,393.968323 1010.720154,394.282043 
	C1004.750061,394.688049 998.730286,394.519196 992.737366,394.373566 
	C989.354431,394.291412 988.026489,395.466461 988.032104,398.996124 
	C988.081360,429.978577 988.025940,460.961365 987.894104,491.943604 
	C987.879578,495.364471 989.371765,496.211548 992.446533,496.134888 
	C998.439758,495.985413 1004.465576,495.734039 1010.427856,496.185547 
	C1015.495667,496.569305 1016.525391,494.579010 1016.462769,489.938110 
	C1016.229004,472.617310 1016.400330,455.291260 1016.378418,437.967224 
	C1016.371521,432.548157 1017.861206,427.753906 1022.011047,424.081390 
	C1028.689453,418.171234 1036.434082,417.171326 1044.381104,420.514130 
	C1051.959473,423.701813 1054.945068,430.278687 1054.943237,438.263550 
	C1054.939331,455.920715 1054.895142,473.578003 1054.819702,491.234985 
	C1054.808350,493.916107 1054.727539,496.227844 1058.558594,496.131317 
	C1065.550537,495.955139 1072.557983,496.238800 1079.538452,495.903259 
	C1080.747314,495.845154 1082.709961,493.771912 1082.849609,492.471039 
	C1083.273926,488.520630 1082.975586,484.492554 1082.961060,479.497009 
M670.531799,378.009369 
	C671.035645,377.573273 671.539001,377.136627 672.043396,376.701111 
	C678.848633,370.824585 678.881409,370.788086 672.004517,364.635773 
	C639.454895,335.515717 580.479675,339.695984 554.885193,382.730042 
	C533.343018,418.950623 544.510193,478.127869 596.912537,494.755646 
	C625.681580,503.884308 652.214417,498.615448 674.798645,477.599396 
	C675.960815,476.517944 676.905151,475.202545 678.257751,473.642090 
	C670.868774,467.451721 663.903015,461.615906 656.867615,455.721680 
	C653.840881,458.258179 651.337402,460.731140 648.481384,462.690033 
	C626.696045,477.631775 597.811157,472.346680 582.696777,450.748749 
	C567.729797,429.361389 572.870605,396.936035 593.543640,382.332703 
	C611.986450,369.304840 636.685730,371.067261 653.707947,386.874908 
	C656.242188,389.228333 657.827332,389.398346 660.248230,387.050446 
	C663.352112,384.040039 666.733093,381.315277 670.531799,378.009369 
M1167.703735,439.967072 
	C1166.497437,452.118378 1169.100342,463.468597 1174.968750,474.104797 
	C1185.453857,493.108490 1209.078003,503.128998 1229.698975,496.656891 
	C1235.303833,494.897705 1240.227417,490.967316 1245.491455,488.017822 
	C1245.558350,488.774170 1245.889648,489.951752 1245.718750,491.051331 
	C1245.109009,494.974792 1246.506592,496.438751 1250.598389,496.224823 
	C1256.911621,495.894806 1263.255615,495.964813 1269.580078,496.123810 
	C1272.660889,496.201263 1273.781006,495.025787 1273.646362,492.051727 
	C1273.510986,489.060181 1273.635132,486.057251 1273.633179,483.059296 
	C1273.615356,455.244781 1273.518677,427.429932 1273.656494,399.616180 
	C1273.677246,395.419464 1272.384644,393.935333 1268.209473,394.303375 
	C1264.406860,394.638519 1260.553955,394.406677 1256.723145,394.413666 
	C1246.753662,394.431854 1246.753662,394.429413 1244.565186,403.454376 
	C1243.688110,402.776672 1242.926392,402.237732 1242.219482,401.634369 
	C1228.793823,390.175995 1213.752319,389.421295 1198.266846,396.016754 
	C1179.494751,404.011993 1170.466675,419.426605 1167.703735,439.967072 
M897.152344,494.320740 
	C900.974915,495.440552 904.729431,496.994019 908.631653,497.606506 
	C927.277222,500.532928 944.348206,497.404297 958.796997,484.206146 
	C962.024475,481.258026 961.780823,479.359711 958.549500,476.799713 
	C955.296509,474.222565 952.159912,471.423859 949.365173,468.363495 
	C946.458618,465.180756 944.242371,464.974243 940.713196,467.806702 
	C931.003235,475.599945 919.858521,476.010864 908.588013,472.123993 
	C901.180664,469.569427 896.003906,464.343475 893.992676,455.677704 
	C895.976501,455.677704 897.572266,455.679932 899.168030,455.677338 
	C920.311951,455.642914 941.456665,455.497345 962.598999,455.663696 
	C966.958557,455.697968 968.605591,453.950592 968.859192,449.964203 
	C969.501282,439.871216 968.702393,429.997345 964.454102,420.655975 
	C951.077759,391.243500 912.446838,382.832794 885.428040,403.180054 
	C856.176086,425.209015 856.687622,477.136749 897.152344,494.320740 
M1456.316162,447.422394 
	C1456.792236,451.204865 1456.923950,455.068970 1457.798584,458.756927 
	C1465.120239,489.628571 1499.693359,506.689026 1529.457886,495.105225 
	C1549.228027,487.411011 1561.010376,472.912567 1563.555176,452.079285 
	C1566.084229,431.374359 1558.869995,413.766388 1541.463989,401.738708 
	C1523.892334,389.596588 1504.680420,388.378540 1485.612915,397.942047 
	C1465.940552,407.808868 1456.739502,424.669922 1456.316162,447.422394 
M777.914856,452.501740 
	C778.073547,446.181732 777.430359,439.712494 778.572266,433.575409 
	C780.452637,423.469513 790.333008,417.551147 801.439636,418.797333 
	C811.709412,419.949615 818.444092,427.670135 818.513916,438.782837 
	C818.623779,456.272980 818.640137,473.765289 818.465515,491.254395 
	C818.428406,494.976868 819.559082,496.302856 823.283020,496.157959 
	C829.437805,495.918518 835.620117,495.815643 841.766541,496.130066 
	C845.878662,496.340454 846.846436,494.774170 846.820618,490.934753 
	C846.689758,471.446167 846.853516,451.955811 846.807617,432.466339 
	C846.783447,422.220673 843.131958,413.230011 836.488037,405.534851 
	C822.814697,389.698212 798.801697,387.617889 782.488708,400.718048 
	C781.297485,401.674652 780.062195,402.576355 778.303284,403.918915 
	C778.173767,402.119232 777.922363,401.138062 778.067261,400.219360 
	C778.813416,395.489929 776.719421,394.065430 772.181519,394.331299 
	C766.369873,394.671783 760.515259,394.677277 754.698914,394.404907 
	C750.691711,394.217285 749.487610,395.750458 749.496521,399.593475 
	C749.567993,430.410034 749.535278,461.227020 749.419617,492.043457 
	C749.406738,495.475403 750.855652,496.265839 753.945862,496.174530 
	C760.437561,495.982727 766.944641,495.880035 773.431396,496.119720 
	C777.049622,496.253387 778.016235,494.850800 777.980713,491.480194 
	C777.847351,478.821655 777.919067,466.160919 777.914856,452.501740 
M695.352600,406.542969 
	C695.351929,434.654877 695.439148,462.767365 695.256409,490.878082 
	C695.228760,495.125977 696.517029,496.454742 700.660828,496.242004 
	C706.800842,495.926727 712.981079,495.837708 719.115906,496.171265 
	C723.285217,496.397919 724.346558,494.764191 724.113586,490.975067 
	C723.869019,486.998505 724.089417,482.994141 724.082336,479.001984 
	C724.035522,452.553314 723.905212,426.104370 724.010254,399.656311 
	C724.026917,395.464355 722.722046,393.986023 718.539551,394.345276 
	C714.575928,394.685699 710.559204,394.351715 706.569214,394.451233 
	C694.272827,394.757965 695.639099,392.139496 695.352600,406.542969 
M354.657196,420.930573 
	C354.655731,429.928070 354.573761,438.926514 354.682251,447.922668 
	C354.749756,453.518280 359.042328,456.097961 363.811554,453.264252 
	C378.557648,444.502777 393.232971,435.620270 407.856018,426.654663 
	C412.667114,423.704895 412.679413,418.165314 407.913361,415.335480 
	C393.453033,406.749603 378.957275,398.220612 364.373535,389.846680 
	C358.907196,386.707947 354.905273,389.202515 354.822296,395.527924 
	C354.715240,403.689148 354.725281,411.851929 354.657196,420.930573 
M713.557190,378.072937 
	C723.392517,375.235138 728.007141,367.000427 724.882690,357.862579 
	C721.981201,349.376678 712.111511,345.235016 703.591858,348.928131 
	C696.695496,351.917572 692.934082,359.618195 694.744019,367.041870 
	C696.669983,374.941406 703.019653,378.875031 713.557190,378.072937 
z"/>
<path fill="#F73356" opacity="1.000000" stroke="none" 
	d="
M267.850342,465.193726 
	C252.782761,427.976990 256.554779,392.651276 277.507538,359.317993 
	C297.654083,327.267212 327.413940,309.010315 364.680634,304.793060 
	C401.921722,300.578735 434.246124,312.734680 460.951141,339.296875 
	C462.758850,341.094940 463.613800,342.800781 461.552856,344.815857 
	C451.215942,354.922760 440.843933,364.993652 430.237091,375.317810 
	C427.264801,372.720184 424.703705,370.402893 422.060059,368.183960 
	C398.852722,348.705231 363.570251,346.676971 338.139984,363.339325 
	C306.623566,383.989380 296.993866,422.602692 315.160522,455.482391 
	C329.052460,480.625336 359.593903,494.679932 389.348572,489.795288 
	C405.593567,487.128479 419.106476,479.415436 430.414886,467.763824 
	C433.291443,464.799957 435.280762,464.404602 438.055359,467.436127 
	C442.799988,472.620026 447.407501,477.967438 452.535706,482.749603 
	C456.291901,486.252380 460.740875,489.029480 464.972473,491.999817 
	C468.359039,494.377014 468.390350,496.491852 465.535492,499.567688 
	C445.101074,521.584167 420.160980,535.077942 390.224182,537.907166 
	C336.117340,543.020630 290.501160,515.705261 267.850342,465.193726 
M419.147156,498.331482 
	C422.390900,502.234833 425.634613,506.138184 429.127960,510.341888 
	C434.385254,506.639862 439.337860,503.352509 444.006348,499.701843 
	C444.980377,498.940155 445.739258,496.148682 445.175018,495.463043 
	C441.851257,491.424164 438.106750,487.731567 434.558929,483.980469 
	C429.427185,487.543945 424.621307,490.743042 420.014038,494.206360 
	C419.173920,494.837860 419.144135,496.547394 419.147156,498.331482 
M410.868347,518.508789 
	C412.425812,517.750183 413.983307,516.991516 416.017883,516.000549 
	C414.251526,513.750732 412.553345,512.252869 411.688660,510.371796 
	C407.848083,502.017365 402.094879,500.323669 393.596893,503.576202 
	C389.202850,505.257996 384.045715,504.946167 379.233368,505.535095 
	C379.067505,505.996613 378.901611,506.458130 378.735748,506.919647 
	C384.771576,510.545654 390.776917,514.223755 396.853729,517.779785 
	C401.068207,520.245972 405.492279,521.051575 410.868347,518.508789 
z"/>
<path fill="#F63255" opacity="1.000000" stroke="none" 
	d="
M1308.597900,469.398743 
	C1288.844849,441.453033 1285.461670,412.378510 1303.317505,382.991058 
	C1320.246216,355.129150 1346.463989,343.618805 1378.523804,346.489624 
	C1398.098877,348.242523 1414.897949,356.696503 1427.900635,371.983734 
	C1430.396973,374.918640 1430.707886,376.732300 1427.375122,379.169556 
	C1421.335327,383.586487 1415.551025,388.352905 1408.178345,394.135559 
	C1407.426880,392.664978 1406.988647,391.099731 1406.016602,390.011017 
	C1391.267700,373.489777 1368.415771,368.874146 1348.637939,378.335876 
	C1329.853394,387.322418 1319.480225,408.417206 1322.877319,430.064728 
	C1328.979980,468.954926 1369.587524,480.025269 1395.284424,464.299377 
	C1403.981445,458.977051 1408.941406,451.026459 1411.249634,440.451019 
	C1408.894897,440.325348 1406.995117,440.144073 1405.094604,440.135742 
	C1394.262695,440.088348 1383.428955,439.969391 1372.599365,440.124481 
	C1368.910156,440.177307 1367.461914,438.878510 1367.611816,435.194550 
	C1367.828491,429.869385 1367.893921,424.528595 1367.752686,419.201691 
	C1367.662598,415.800476 1368.858398,414.420715 1372.369019,414.433533 
	C1394.032471,414.512634 1415.696167,414.468414 1437.359863,414.413635 
	C1440.144531,414.406586 1442.327881,414.716766 1442.399414,418.282776 
	C1442.815430,439.034363 1439.180298,458.802429 1424.803711,474.600983 
	C1403.755859,497.730774 1377.327393,503.155487 1347.688599,495.467072 
	C1331.805176,491.346863 1319.118042,482.278992 1308.597900,469.398743 
z"/>
<path fill="#F9F9F9" opacity="1.000000" stroke="none" 
	d="
M1082.959839,479.995880 
	C1082.975586,484.492554 1083.273926,488.520630 1082.849609,492.471039 
	C1082.709961,493.771912 1080.747314,495.845154 1079.538452,495.903259 
	C1072.557983,496.238800 1065.550537,495.955139 1058.558594,496.131317 
	C1054.727539,496.227844 1054.808350,493.916107 1054.819702,491.234985 
	C1054.895142,473.578003 1054.939331,455.920715 1054.943237,438.263550 
	C1054.945068,430.278687 1051.959473,423.701813 1044.381104,420.514130 
	C1036.434082,417.171326 1028.689453,418.171234 1022.011047,424.081390 
	C1017.861206,427.753906 1016.371521,432.548157 1016.378418,437.967224 
	C1016.400330,455.291260 1016.229004,472.617310 1016.462769,489.938110 
	C1016.525391,494.579010 1015.495667,496.569305 1010.427856,496.185547 
	C1004.465576,495.734039 998.439758,495.985413 992.446533,496.134888 
	C989.371765,496.211548 987.879578,495.364471 987.894104,491.943604 
	C988.025940,460.961365 988.081360,429.978577 988.032104,398.996124 
	C988.026489,395.466461 989.354431,394.291412 992.737366,394.373566 
	C998.730286,394.519196 1004.750061,394.688049 1010.720154,394.282043 
	C1015.333252,393.968323 1017.300903,395.408752 1016.647400,400.095367 
	C1016.525513,400.969574 1016.866516,401.908356 1017.017456,402.985016 
	C1041.179321,387.420807 1058.683838,388.744751 1075.970825,407.345215 
	C1078.186157,405.241577 1080.223267,402.865631 1082.675781,401.051331 
	C1096.286011,390.982697 1111.173340,389.136322 1126.521118,395.989380 
	C1142.266357,403.019928 1149.590820,416.159729 1149.820435,433.072662 
	C1150.082764,452.390411 1149.686035,471.716400 1149.809082,491.037354 
	C1149.834106,494.966797 1148.723267,496.380219 1144.705688,496.171539 
	C1138.724609,495.860870 1132.706055,495.865967 1126.722656,496.145569 
	C1122.783325,496.329712 1121.499146,495.019684 1121.542847,491.047516 
	C1121.735596,473.558899 1121.488037,456.065094 1121.717529,438.577332 
	C1121.956787,420.352020 1104.233276,414.783234 1092.189087,421.439728 
	C1086.117065,424.795563 1083.159424,430.170197 1083.099731,437.020355 
	C1082.976318,451.178589 1082.998657,465.338043 1082.959839,479.995880 
z"/>
<path fill="#FAF9FA" opacity="1.000000" stroke="none" 
	d="
M670.263184,378.238403 
	C666.733093,381.315277 663.352112,384.040039 660.248230,387.050446 
	C657.827332,389.398346 656.242188,389.228333 653.707947,386.874908 
	C636.685730,371.067261 611.986450,369.304840 593.543640,382.332703 
	C572.870605,396.936035 567.729797,429.361389 582.696777,450.748749 
	C597.811157,472.346680 626.696045,477.631775 648.481384,462.690033 
	C651.337402,460.731140 653.840881,458.258179 656.867615,455.721680 
	C663.903015,461.615906 670.868774,467.451721 678.257751,473.642090 
	C676.905151,475.202545 675.960815,476.517944 674.798645,477.599396 
	C652.214417,498.615448 625.681580,503.884308 596.912537,494.755646 
	C544.510193,478.127869 533.343018,418.950623 554.885193,382.730042 
	C580.479675,339.695984 639.454895,335.515717 672.004517,364.635773 
	C678.881409,370.788086 678.848633,370.824585 672.043396,376.701111 
	C671.539001,377.136627 671.035645,377.573273 670.263184,378.238403 
z"/>
<path fill="#F9F8F9" opacity="1.000000" stroke="none" 
	d="
M1167.739990,439.521118 
	C1170.466675,419.426605 1179.494751,404.011993 1198.266846,396.016754 
	C1213.752319,389.421295 1228.793823,390.175995 1242.219482,401.634369 
	C1242.926392,402.237732 1243.688110,402.776672 1244.565186,403.454376 
	C1246.753662,394.429413 1246.753662,394.431854 1256.723145,394.413666 
	C1260.553955,394.406677 1264.406860,394.638519 1268.209473,394.303375 
	C1272.384644,393.935333 1273.677246,395.419464 1273.656494,399.616180 
	C1273.518677,427.429932 1273.615356,455.244781 1273.633179,483.059296 
	C1273.635132,486.057251 1273.510986,489.060181 1273.646362,492.051727 
	C1273.781006,495.025787 1272.660889,496.201263 1269.580078,496.123810 
	C1263.255615,495.964813 1256.911621,495.894806 1250.598389,496.224823 
	C1246.506592,496.438751 1245.109009,494.974792 1245.718750,491.051331 
	C1245.889648,489.951752 1245.558350,488.774170 1245.491455,488.017822 
	C1240.227417,490.967316 1235.303833,494.897705 1229.698975,496.656891 
	C1209.078003,503.128998 1185.453857,493.108490 1174.968750,474.104797 
	C1169.100342,463.468597 1166.497437,452.118378 1167.739990,439.521118 
M1228.242432,471.044464 
	C1242.142822,466.870819 1249.481201,452.642761 1245.468384,437.646118 
	C1241.777954,423.854675 1228.725220,416.145447 1215.076294,419.695892 
	C1201.582275,423.206055 1193.615967,437.607086 1197.000610,452.372101 
	C1200.137695,466.056519 1213.231079,474.156250 1228.242432,471.044464 
z"/>
<path fill="#F9F8F9" opacity="1.000000" stroke="none" 
	d="
M896.798828,494.174042 
	C856.687622,477.136749 856.176086,425.209015 885.428040,403.180054 
	C912.446838,382.832794 951.077759,391.243500 964.454102,420.655975 
	C968.702393,429.997345 969.501282,439.871216 968.859192,449.964203 
	C968.605591,453.950592 966.958557,455.697968 962.598999,455.663696 
	C941.456665,455.497345 920.311951,455.642914 899.168030,455.677338 
	C897.572266,455.679932 895.976501,455.677704 893.992676,455.677704 
	C896.003906,464.343475 901.180664,469.569427 908.588013,472.123993 
	C919.858521,476.010864 931.003235,475.599945 940.713196,467.806702 
	C944.242371,464.974243 946.458618,465.180756 949.365173,468.363495 
	C952.159912,471.423859 955.296509,474.222565 958.549500,476.799713 
	C961.780823,479.359711 962.024475,481.258026 958.796997,484.206146 
	C944.348206,497.404297 927.277222,500.532928 908.631653,497.606506 
	C904.729431,496.994019 900.974915,495.440552 896.798828,494.174042 
M934.551147,421.899658 
	C919.213013,411.104004 897.312622,417.711578 894.567627,433.947266 
	C910.042053,433.947266 925.516907,433.947266 942.627502,433.947266 
	C939.660645,429.398010 937.374756,425.892853 934.551147,421.899658 
z"/>
<path fill="#F63356" opacity="1.000000" stroke="none" 
	d="
M1456.328003,446.961212 
	C1456.739502,424.669922 1465.940552,407.808868 1485.612915,397.942047 
	C1504.680420,388.378540 1523.892334,389.596588 1541.463989,401.738708 
	C1558.869995,413.766388 1566.084229,431.374359 1563.555176,452.079285 
	C1561.010376,472.912567 1549.228027,487.411011 1529.457886,495.105225 
	C1499.693359,506.689026 1465.120239,489.628571 1457.798584,458.756927 
	C1456.923950,455.068970 1456.792236,451.204865 1456.328003,446.961212 
M1515.577393,471.391815 
	C1527.575439,468.414337 1534.879761,459.691833 1535.802124,447.240295 
	C1536.614502,436.272949 1530.051270,425.125275 1520.313232,420.932465 
	C1510.133667,416.549469 1499.091919,419.045074 1491.171875,427.518738 
	C1484.186768,434.992157 1482.595947,448.663177 1487.575928,458.420197 
	C1492.638062,468.337921 1502.737549,473.245850 1515.577393,471.391815 
z"/>
<path fill="#FAF9FA" opacity="1.000000" stroke="none" 
	d="
M777.914429,453.001373 
	C777.919067,466.160919 777.847351,478.821655 777.980713,491.480194 
	C778.016235,494.850800 777.049622,496.253387 773.431396,496.119720 
	C766.944641,495.880035 760.437561,495.982727 753.945862,496.174530 
	C750.855652,496.265839 749.406738,495.475403 749.419617,492.043457 
	C749.535278,461.227020 749.567993,430.410034 749.496521,399.593475 
	C749.487610,395.750458 750.691711,394.217285 754.698914,394.404907 
	C760.515259,394.677277 766.369873,394.671783 772.181519,394.331299 
	C776.719421,394.065430 778.813416,395.489929 778.067261,400.219360 
	C777.922363,401.138062 778.173767,402.119232 778.303284,403.918915 
	C780.062195,402.576355 781.297485,401.674652 782.488708,400.718048 
	C798.801697,387.617889 822.814697,389.698212 836.488037,405.534851 
	C843.131958,413.230011 846.783447,422.220673 846.807617,432.466339 
	C846.853516,451.955811 846.689758,471.446167 846.820618,490.934753 
	C846.846436,494.774170 845.878662,496.340454 841.766541,496.130066 
	C835.620117,495.815643 829.437805,495.918518 823.283020,496.157959 
	C819.559082,496.302856 818.428406,494.976868 818.465515,491.254395 
	C818.640137,473.765289 818.623779,456.272980 818.513916,438.782837 
	C818.444092,427.670135 811.709412,419.949615 801.439636,418.797333 
	C790.333008,417.551147 780.452637,423.469513 778.572266,433.575409 
	C777.430359,439.712494 778.073547,446.181732 777.914429,453.001373 
z"/>
<path fill="#F6F6F6" opacity="1.000000" stroke="none" 
	d="
M695.350525,406.052673 
	C695.639099,392.139496 694.272827,394.757965 706.569214,394.451233 
	C710.559204,394.351715 714.575928,394.685699 718.539551,394.345276 
	C722.722046,393.986023 724.026917,395.464355 724.010254,399.656311 
	C723.905212,426.104370 724.035522,452.553314 724.082336,479.001984 
	C724.089417,482.994141 723.869019,486.998505 724.113586,490.975067 
	C724.346558,494.764191 723.285217,496.397919 719.115906,496.171265 
	C712.981079,495.837708 706.800842,495.926727 700.660828,496.242004 
	C696.517029,496.454742 695.228760,495.125977 695.256409,490.878082 
	C695.439148,462.767365 695.351929,434.654877 695.350525,406.052673 
z"/>
<path fill="#F73155" opacity="1.000000" stroke="none" 
	d="
M354.671051,420.472290 
	C354.725281,411.851929 354.715240,403.689148 354.822296,395.527924 
	C354.905273,389.202515 358.907196,386.707947 364.373535,389.846680 
	C378.957275,398.220612 393.453033,406.749603 407.913361,415.335480 
	C412.679413,418.165314 412.667114,423.704895 407.856018,426.654663 
	C393.232971,435.620270 378.557648,444.502777 363.811554,453.264252 
	C359.042328,456.097961 354.749756,453.518280 354.682251,447.922668 
	C354.573761,438.926514 354.655731,429.928070 354.671051,420.472290 
z"/>
<path fill="#F6F6F6" opacity="1.000000" stroke="none" 
	d="
M713.161011,378.139404 
	C703.019653,378.875031 696.669983,374.941406 694.744019,367.041870 
	C692.934082,359.618195 696.695496,351.917572 703.591858,348.928131 
	C712.111511,345.235016 721.981201,349.376678 724.882690,357.862579 
	C728.007141,367.000427 723.392517,375.235138 713.161011,378.139404 
z"/>
<path fill="#0E0709" opacity="1.000000" stroke="none" 
	d="
M418.943726,498.045380 
	C419.144135,496.547394 419.173920,494.837860 420.014038,494.206360 
	C424.621307,490.743042 429.427185,487.543945 434.558929,483.980469 
	C438.106750,487.731567 441.851257,491.424164 445.175018,495.463043 
	C445.739258,496.148682 444.980377,498.940155 444.006348,499.701843 
	C439.337860,503.352509 434.385254,506.639862 429.127960,510.341888 
	C425.634613,506.138184 422.390900,502.234833 418.943726,498.045380 
z"/>
<path fill="#0E0709" opacity="1.000000" stroke="none" 
	d="
M410.487579,518.647339 
	C405.492279,521.051575 401.068207,520.245972 396.853729,517.779785 
	C390.776917,514.223755 384.771576,510.545654 378.735748,506.919647 
	C378.901611,506.458130 379.067505,505.996613 379.233368,505.535095 
	C384.045715,504.946167 389.202850,505.257996 393.596893,503.576202 
	C402.094879,500.323669 407.848083,502.017365 411.688660,510.371796 
	C412.553345,512.252869 414.251526,513.750732 416.017883,516.000549 
	C413.983307,516.991516 412.425812,517.750183 410.487579,518.647339 
z"/>
<path fill="#080809" opacity="1.000000" stroke="none" 
	d="
M1227.836060,471.120056 
	C1213.231079,474.156250 1200.137695,466.056519 1197.000610,452.372101 
	C1193.615967,437.607086 1201.582275,423.206055 1215.076294,419.695892 
	C1228.725220,416.145447 1241.777954,423.854675 1245.468384,437.646118 
	C1249.481201,452.642761 1242.142822,466.870819 1227.836060,471.120056 
z"/>
<path fill="#080809" opacity="1.000000" stroke="none" 
	d="
M934.819946,422.143677 
	C937.374756,425.892853 939.660645,429.398010 942.627502,433.947266 
	C925.516907,433.947266 910.042053,433.947266 894.567627,433.947266 
	C897.312622,417.711578 919.213013,411.104004 934.819946,422.143677 
z"/>
<path fill="#080507" opacity="1.000000" stroke="none" 
	d="
M1515.171387,471.512543 
	C1502.737549,473.245850 1492.638062,468.337921 1487.575928,458.420197 
	C1482.595947,448.663177 1484.186768,434.992157 1491.171875,427.518738 
	C1499.091919,419.045074 1510.133667,416.549469 1520.313232,420.932465 
	C1530.051270,425.125275 1536.614502,436.272949 1535.802124,447.240295 
	C1534.879761,459.691833 1527.575439,468.414337 1515.171387,471.512543 
z"/>
</svg>